<svg width="120" height="120" viewBox="0 0 120 120" fill="none" xmlns="http://www.w3.org/2000/svg">
<circle cx="60" cy="60" r="60" fill="#F8A64C"/>
<path d="M90 72.148C89.5977 73.2235 88.9605 74.0626 87.7613 74.3052C87.4967 74.3585 87.2196 74.371 86.9472 74.3726C68.9812 74.3757 51.0168 74.3757 33.0508 74.3741C31.1518 74.3741 30.0027 73.2109 30.0012 71.2979C29.9996 68.3484 29.9996 65.4005 30.0012 62.4511C30.0027 60.5364 31.1534 59.3764 33.0524 59.3764C51.0184 59.3748 68.9828 59.3795 86.9488 59.3701C88.5425 59.3686 89.474 60.1858 90 61.6026C90 65.1172 90 68.6333 90 72.148ZM45.024 72.5002C45.2306 72.5002 45.384 72.5002 45.5375 72.5002C59.3204 72.5002 73.1033 72.5002 86.8862 72.5002C87.8083 72.5002 88.1229 72.1887 88.1229 71.276C88.1261 68.4063 88.1245 65.5367 88.1245 62.6671C88.1245 61.5039 87.8756 61.2519 86.728 61.2519C73.0422 61.2519 59.3579 61.2519 45.6721 61.2519C45.4639 61.2519 45.2557 61.2519 45.024 61.2519C45.024 65.0185 45.024 68.7194 45.024 72.5002ZM43.0999 61.2503C39.7184 61.2503 36.401 61.2488 33.0853 61.2519C32.1804 61.2519 31.8751 61.5681 31.8751 62.498C31.8735 65.4052 31.8735 68.3124 31.8751 71.2196C31.8751 72.209 32.1694 72.4986 33.1714 72.5002C36.293 72.5018 39.4147 72.5018 42.5363 72.5002C42.7226 72.5002 42.9105 72.483 43.0999 72.4751C43.0999 68.7163 43.0999 65.0154 43.0999 61.2503Z" fill="white"/>
<path d="M34.6911 50.0005C34.6911 52.1014 34.6911 54.1116 34.6911 56.1233C34.6911 56.319 34.7037 56.5178 34.6723 56.7072C34.5941 57.18 34.1823 57.5228 33.7236 57.4915C33.2352 57.4587 32.9315 57.1816 32.836 56.7041C32.7984 56.5162 32.8172 56.3143 32.8172 56.1201C32.8172 51.0619 32.8156 46.0037 32.8172 40.9455C32.8188 37.3917 35.214 35.0012 38.7756 35.0012C52.9358 34.9996 67.0944 34.9996 81.2546 35.0012C84.7849 35.0012 87.188 37.3917 87.1911 40.9079C87.1958 46.0053 87.1926 51.1026 87.1926 56.2C87.1926 56.3362 87.2005 56.4739 87.1848 56.6101C87.13 57.1299 86.7512 57.49 86.2627 57.4947C85.7758 57.4994 85.3829 57.1424 85.325 56.6274C85.3062 56.4536 85.3156 56.2767 85.3156 56.0998C85.3156 52.4286 85.3156 48.7559 85.3156 45.0847C85.3156 44.8734 85.3156 44.6605 85.3156 44.4116C76.5377 44.4116 67.7989 44.4116 59.0194 44.4116C58.9897 44.5274 58.9552 44.6526 58.9271 44.7795C58.2226 47.9042 55.6191 49.9911 52.3785 49.9958C46.7347 50.0052 41.0894 49.9989 35.4457 49.9989C35.214 50.0005 34.9839 50.0005 34.6911 50.0005ZM85.3156 42.5C85.3156 41.8958 85.3172 41.3525 85.3156 40.8108C85.3031 38.4657 83.7203 36.8767 81.3767 36.8767C67.1257 36.8735 52.8747 36.8735 38.6253 36.8767C36.2864 36.8767 34.699 38.4719 34.6927 40.8155C34.688 43.0605 34.6911 45.3055 34.6911 47.5504C34.6911 47.7352 34.6911 47.9199 34.6911 48.1172C40.7779 48.1172 46.7692 48.15 52.762 48.0999C55.0806 48.0812 56.9905 46.1305 57.1784 43.8041C57.2676 42.6926 57.4742 42.5 58.5795 42.4985C67.2275 42.4985 75.8755 42.4985 84.5234 42.4985C84.7567 42.5 84.99 42.5 85.3156 42.5Z" fill="white"/>
<path d="M59.9708 85.6254C52.9213 85.6254 45.8717 85.6254 38.8221 85.6254C35.187 85.6254 32.8168 83.2505 32.8152 79.6106C32.8152 78.8498 32.8074 78.0874 32.8183 77.3265C32.8262 76.6737 33.1815 76.2682 33.731 76.2557C34.3009 76.2416 34.6798 76.6627 34.6876 77.3438C34.697 78.1641 34.6876 78.9844 34.6907 79.8048C34.7001 82.1499 36.2829 83.7483 38.6202 83.7499C43.4624 83.7546 48.3061 83.7515 53.1498 83.7515C62.4835 83.7515 71.8187 83.7515 81.1524 83.7515C83.8122 83.7515 85.3136 82.2407 85.3152 79.5668C85.3152 78.806 85.3058 78.0435 85.3183 77.2827C85.3292 76.6502 85.7253 76.2416 86.2748 76.2573C86.804 76.2714 87.1813 76.6674 87.1828 77.2733C87.186 78.4052 87.2705 79.5511 87.128 80.6674C86.7476 83.6419 84.4259 85.6191 81.4123 85.6254C77.5267 85.6348 73.6395 85.627 69.7538 85.6285C66.4928 85.6254 63.2318 85.6254 59.9708 85.6254Z" fill="white"/>
<path d="M48.7396 67.8097C48.4265 67.8097 48.1134 67.8269 47.8035 67.8066C47.2493 67.769 46.8751 67.3745 46.8829 66.8626C46.8892 66.3725 47.2477 65.9733 47.769 65.9499C48.4312 65.9217 49.0982 65.9185 49.7588 65.9514C50.2739 65.9765 50.6292 66.3992 50.6214 66.886C50.6152 67.3729 50.2551 67.7612 49.7338 67.8019C49.4034 67.8269 49.07 67.8066 48.7381 67.8066C48.7396 67.8081 48.7396 67.8081 48.7396 67.8097Z" fill="white"/>
<path d="M54.3616 67.8132C54.108 67.8132 53.8544 67.8179 53.6008 67.8117C52.9182 67.7976 52.4971 67.4297 52.508 66.8598C52.5174 66.3103 52.9229 65.9518 53.5726 65.9393C54.1189 65.9299 54.6669 65.9283 55.2133 65.9393C55.8504 65.9534 56.2575 66.3369 56.2496 66.888C56.2402 67.4375 55.8332 67.7929 55.1851 67.8101C54.908 67.8179 54.634 67.8132 54.3616 67.8132Z" fill="white"/>
<path d="M59.9881 67.8099C59.675 67.8099 59.3619 67.8271 59.0519 67.8068C58.4993 67.7692 58.1251 67.3731 58.1329 66.8627C58.1408 66.3727 58.4977 65.9735 59.0206 65.9516C59.6828 65.9234 60.3497 65.9203 61.0104 65.9547C61.5254 65.9813 61.8792 66.404 61.8714 66.8909C61.8636 67.3778 61.5035 67.752 60.9838 67.8099C60.9446 67.8146 60.9055 67.8146 60.8663 67.8146C60.5736 67.8146 60.2808 67.8146 59.9881 67.8146C59.9881 67.8115 59.9881 67.8099 59.9881 67.8099Z" fill="white"/>
<path d="M65.6803 67.8067C65.3296 67.8067 64.9758 67.8301 64.6267 67.8004C64.1101 67.7566 63.7547 67.3558 63.7578 66.8689C63.761 66.3789 64.1179 65.9734 64.6377 65.9499C65.2999 65.9202 65.9652 65.9186 66.6274 65.9515C67.1441 65.9766 67.4994 66.393 67.4963 66.8799C67.4932 67.3667 67.1347 67.7581 66.6149 67.802C66.3065 67.8286 65.9918 67.8067 65.6803 67.8067Z" fill="white"/>
<path d="M71.2474 65.9437C71.5793 65.9437 71.9127 65.9218 72.2431 65.9484C72.7628 65.9907 73.1197 66.3805 73.1229 66.8705C73.126 67.3574 72.7691 67.7738 72.2524 67.7989C71.5902 67.8318 70.9249 67.8302 70.2627 67.8005C69.7429 67.777 69.386 67.3684 69.3828 66.8799C69.3797 66.3915 69.7351 65.9923 70.2517 65.9484C70.5805 65.9203 70.9155 65.9437 71.2474 65.9437Z" fill="white"/>
<path d="M40.3895 65.9252C40.2533 66.4277 40.1687 66.9537 39.9652 67.4281C39.8196 67.7678 39.8869 67.9494 40.1264 68.178C40.69 68.7165 41.2395 69.2707 41.7843 69.8296C42.2728 70.3306 42.3072 70.8644 41.8986 71.2715C41.4885 71.6801 40.9577 71.6425 40.4568 71.1525C39.8994 70.6077 39.3437 70.0598 38.8051 69.4946C38.575 69.2535 38.3934 69.1925 38.0568 69.3427C36.5962 69.9956 35.0072 69.6825 33.9066 68.5772C32.8186 67.4845 32.5148 65.825 33.1458 64.4113C33.7782 62.9945 35.1888 62.1257 36.7527 62.1899C38.7096 62.2744 40.3159 63.9479 40.3895 65.9252ZM38.4357 66.0238C38.4826 65.0031 37.6874 64.1248 36.6666 64.0669C35.6475 64.0106 34.7551 64.8027 34.6956 65.8187C34.6346 66.8661 35.4502 67.7678 36.4929 67.807C37.5136 67.8461 38.3887 67.043 38.4357 66.0238Z" fill="white"/>
<path d="M73.5364 40.6264C71.0363 40.6264 68.5377 40.6264 66.0375 40.6264C65.8622 40.6264 65.6822 40.6436 65.5115 40.6123C65.0074 40.5168 64.7021 40.2084 64.7021 39.6902C64.7021 39.172 65.0059 38.8604 65.5115 38.7681C65.701 38.7336 65.9013 38.7524 66.0955 38.7524C71.0942 38.7524 76.0945 38.7524 81.0932 38.7524C81.2889 38.7524 81.4877 38.7336 81.6772 38.7665C82.1828 38.8573 82.4865 39.1704 82.4881 39.6886C82.4881 40.2068 82.1813 40.5168 81.6787 40.6123C81.5081 40.6451 81.328 40.6264 81.1527 40.6264C78.6134 40.6264 76.0741 40.6264 73.5364 40.6264Z" fill="white"/>
<path d="M39.3914 40.6274C40.9162 40.629 42.1843 41.8987 42.1812 43.4235C42.1796 44.9859 40.91 46.2539 39.3538 46.2446C37.8259 46.2352 36.5672 44.9749 36.5625 43.447C36.5594 41.8924 37.829 40.6259 39.3914 40.6274ZM39.3664 42.5029C38.8638 42.5061 38.4443 42.9256 38.4396 43.4282C38.4349 43.9323 38.8466 44.3581 39.3491 44.3706C39.8736 44.3831 40.3166 43.9401 40.3057 43.4156C40.2947 42.9131 39.8689 42.4998 39.3664 42.5029Z" fill="white"/>
<path d="M48.7499 43.4455C48.7374 45.0079 47.4584 46.265 45.9023 46.2462C44.3743 46.2274 43.1266 44.9578 43.1328 43.4267C43.1375 41.8737 44.4181 40.6166 45.9821 40.6275C47.5022 40.6385 48.7609 41.9191 48.7499 43.4455ZM45.9367 42.503C45.4342 42.5046 45.013 42.9226 45.0068 43.4251C45.0005 43.9292 45.4107 44.3566 45.9132 44.3707C46.4377 44.3848 46.8823 43.9433 46.8744 43.4188C46.8635 42.9163 46.4392 42.5014 45.9367 42.503Z" fill="white"/>
<path d="M55.3062 43.4614C55.3031 44.9847 54.0288 46.2512 52.504 46.2481C50.9431 46.2449 49.6766 44.9706 49.6876 43.416C49.6985 41.8865 50.9588 40.6341 52.4899 40.6294C54.046 40.6263 55.3109 41.8975 55.3062 43.4614ZM53.4307 43.4614C53.4448 42.9605 53.0378 42.5253 52.5368 42.5018C52.0359 42.4799 51.5944 42.8791 51.5662 43.3816C51.5365 43.906 51.9623 44.3616 52.4883 44.3694C52.9893 44.3788 53.4167 43.9655 53.4307 43.4614Z" fill="white"/>
</svg>
