<svg width="120" height="120" viewBox="0 0 120 120" fill="none" xmlns="http://www.w3.org/2000/svg">
<circle cx="60" cy="60" r="60" fill="#7968EF"/>
<path d="M31.8039 90.4966C31.736 90.4302 31.6635 90.3668 31.5941 90.3049C31.3994 90.1314 31.2153 89.9669 31.1534 89.7978C31.0629 89.5503 31.087 89.3134 31.2228 89.1142C31.3934 88.8637 31.7224 88.7082 32.1027 88.6976C32.403 88.6901 32.7275 88.6856 33.1214 88.6856C33.387 88.6856 33.6557 88.6871 33.9273 88.6886C34.208 88.6901 34.4933 88.6916 34.7845 88.6916H35.0864V87.6729C35.0864 86.707 35.0924 85.7411 35.0984 84.7752C35.112 82.5628 35.1271 80.2763 35.0637 78.0261C35.0351 76.9908 35.3399 76.1125 35.9466 75.4892C36.5276 74.8915 37.3592 74.5625 38.2874 74.5625C38.3553 74.5625 38.4232 74.564 38.4926 74.5686C39.0676 74.5972 39.6849 74.6123 40.4319 74.6123C40.9375 74.6123 41.4446 74.6063 41.9517 74.6003C42.4558 74.5942 42.9598 74.5882 43.4639 74.5882H43.568C45.6809 74.5912 46.849 75.7593 46.8566 77.8752C46.8641 80.1481 46.8626 82.4601 46.8611 84.6953C46.8611 85.6551 46.8596 86.6134 46.8596 87.5733V88.6433H54.1641V82.2956C54.1641 77.4345 54.1626 72.5749 54.1671 67.7138C54.1686 66.0326 55.0183 64.8796 56.4973 64.5505C56.8097 64.4811 57.1523 64.4736 57.4496 64.4721C58.3446 64.4675 59.238 64.466 60.1329 64.466C60.9072 64.466 61.6814 64.4675 62.4556 64.4675H62.6292C64.7767 64.4706 65.9584 65.6462 65.9599 67.7772C65.9614 72.5629 65.9615 77.3485 65.9615 82.1342V88.6524H73.2856V78.912C73.2871 69.5746 73.2886 59.9203 73.2765 50.4245C73.275 48.8987 73.8062 47.9389 74.9502 47.4001C75.3381 47.2175 75.8648 47.1178 76.5168 47.1028C77.2532 47.0862 78.0425 47.0786 79.0009 47.0786C79.6529 47.0786 80.3048 47.0816 80.9583 47.0862L81.811 47.0907C83.8937 47.0997 85.0452 48.2588 85.0527 50.3551C85.0603 52.4015 85.0588 54.4812 85.0573 56.493C85.0573 57.3577 85.0558 58.224 85.0558 59.0888V88.6916H86.7612C87.0434 88.6916 87.3196 88.6916 87.5972 88.6916C88.5646 88.6931 88.7789 89.0583 88.8544 89.333C88.9691 89.745 88.9012 90.0559 88.2281 90.4981H31.8039V90.4966ZM76.7341 48.8942C75.3683 48.8942 75.0921 49.1749 75.0921 50.5633V88.6614H83.1844L83.2055 88.3837C83.21 88.3249 83.2161 88.2705 83.2206 88.2162C83.2327 88.097 83.2432 87.9853 83.2432 87.8676C83.2447 75.3594 83.2462 62.8512 83.2432 50.343C83.2432 49.2654 82.878 48.9002 81.7944 48.8972C81.0413 48.8942 80.2882 48.8942 79.5351 48.8942H76.7341ZM57.6473 66.2725C56.3162 66.2725 55.9721 66.6151 55.9721 67.9342V88.6569H64.1006L64.1263 88.3837C64.1308 88.343 64.1338 88.3083 64.1383 88.2766C64.1459 88.2056 64.1534 88.1453 64.1534 88.0774V85.8951C64.1549 79.8009 64.1549 73.7053 64.1519 67.6112C64.1519 66.7027 63.7112 66.2786 62.7665 66.2756C62.027 66.2725 61.286 66.2725 60.5465 66.2725H57.6473ZM41.096 76.3902C40.1769 76.3902 39.2578 76.3917 38.3387 76.3932C37.2898 76.3947 36.9004 76.7886 36.8989 77.845C36.8959 79.7587 36.8974 81.6723 36.8974 83.586V88.6433H44.9444L44.9988 88.4109C45.0048 88.3837 45.0108 88.3626 45.0169 88.3445C45.0304 88.2977 45.0455 88.2434 45.0455 88.1785L45.0486 85.8438C45.0531 83.1755 45.0561 80.4152 45.0486 77.7017C45.0455 76.8158 44.6184 76.4007 43.7008 76.3977C42.83 76.3917 41.9623 76.3902 41.096 76.3902Z" fill="white"/>
<path d="M42.3237 62.3275C42.0943 62.3275 41.8709 62.2415 41.7125 62.089C41.4212 61.8113 41.3563 61.3676 41.5585 61.0311C41.6808 60.8258 41.8543 60.6417 42.0083 60.4878C49.0049 53.4851 56.003 46.487 63.0012 39.4874C63.4222 39.0663 63.7256 38.8776 63.9852 38.8776C64.2432 38.8776 64.5451 39.0633 64.9616 39.4798C65.9501 40.4683 66.9372 41.4584 67.903 42.4257L69.2387 43.7644L81.7952 31.2079H77.2631C76.6896 31.2079 76.27 31.0887 76.0497 30.8623C75.9108 30.7204 75.8459 30.5318 75.852 30.2888C75.8565 30.07 75.8716 29.4029 77.2495 29.4014L80.9893 29.3999C81.931 29.3999 82.8727 29.3999 83.8145 29.4029C84.7396 29.4059 85.0399 29.6897 85.0475 30.5756C85.0565 31.6773 85.055 32.7971 85.0535 33.8807C85.052 34.9296 85.0505 36.0132 85.058 37.0802C85.0611 37.4333 84.9599 37.7231 84.7668 37.9178C84.6038 38.0823 84.3834 38.1713 84.1465 38.1713C84.0031 38.1713 83.8643 38.1366 83.745 38.0732C83.3934 37.8846 83.2485 37.5767 83.2485 37.0138C83.247 36.2924 83.247 35.5725 83.247 34.8511V32.5375L82.7369 33.0235C82.6448 33.111 82.5679 33.185 82.4985 33.2499C82.3702 33.3721 82.2706 33.4642 82.1755 33.5607L70.3328 45.3989C69.8982 45.8335 69.5888 46.0282 69.3322 46.0282C69.0757 46.0282 68.7693 45.835 68.3377 45.4034C67.3612 44.4269 66.3848 43.449 65.3419 42.4031L63.7995 40.8577L63.6003 41.1912C63.552 41.2742 63.5083 41.3572 63.466 41.4387C63.3936 41.5791 63.3317 41.7013 63.2532 41.7798C56.9734 48.0716 50.7616 54.282 43.3666 61.6725C43.1915 61.8476 42.9923 62.0468 42.781 62.1886C42.6497 62.2807 42.4912 62.3275 42.3237 62.3275Z" fill="white"/>
<path d="M38.2632 66.5321C37.7728 66.5321 37.3864 66.1488 37.3819 65.6598C37.3773 65.1753 37.7773 64.7633 38.2542 64.7588C38.7281 64.7588 39.1416 65.1723 39.1476 65.6447C39.1507 65.8786 39.0616 66.099 38.8956 66.268C38.7296 66.437 38.5077 66.5321 38.2708 66.5336L38.2632 66.5321Z" fill="white"/>
</svg>
