<svg width="120" height="120" viewBox="0 0 120 120" fill="none" xmlns="http://www.w3.org/2000/svg">
<circle cx="60" cy="60" r="60" fill="#63DE9D"/>
<path d="M90.0005 77.464C89.8112 77.8881 89.6776 78.3505 89.4208 78.7291C88.0029 80.8206 85.0954 80.7428 83.7701 78.5662C82.8072 76.984 81.9075 75.3637 80.9814 73.7595C80.2989 72.5779 79.6091 71.3994 78.9413 70.2076C78.7828 69.9243 78.6287 69.8583 78.2955 69.9155C72.5597 70.9003 67.4418 68.0002 65.3385 62.5902C63.1737 57.0246 66.1194 50.279 71.682 48.0642C77.8684 45.5999 84.5494 48.4634 86.8743 54.7071C88.3537 58.6816 87.6478 62.4184 85.091 65.8001C84.9149 66.0319 84.7241 66.2536 84.5215 66.5002C84.6771 66.7805 84.8224 67.052 84.9765 67.3191C86.2725 69.5662 87.5847 71.8045 88.8601 74.0618C89.2872 74.8177 89.6218 75.6249 89.999 76.4087C90.0005 76.7609 90.0005 77.1117 90.0005 77.464ZM76.1057 48.9302C70.6913 48.9316 66.3968 53.2951 66.407 58.7859C66.4158 64.1063 70.7999 68.3759 76.251 68.3744C81.5538 68.3729 85.8278 63.986 85.8483 58.5246C85.866 53.323 81.4026 48.9287 76.1057 48.9302ZM80.4706 69.346C80.8655 70.0315 81.2529 70.7051 81.6419 71.3788C82.8205 73.4219 83.9961 75.4664 85.1791 77.5065C85.6267 78.2785 86.2505 78.6073 86.9462 78.4591C88.1027 78.214 88.5621 77.0603 87.9208 75.939C86.4692 73.4013 85.0015 70.8725 83.5396 68.3407C83.4237 68.1411 83.3019 67.9444 83.1962 67.7683C82.2891 68.2952 81.4144 68.8001 80.4706 69.346Z" fill="white"/>
<path d="M63.0272 80.1074C63.1622 80.3833 63.2518 80.5712 63.3472 80.7561C64.5463 83.1001 65.7469 85.444 66.9445 87.7879C67.0414 87.9787 67.2146 88.196 67.1838 88.3706C67.1236 88.7009 67.0223 89.1015 66.7904 89.3056C66.4793 89.5786 66.0433 89.5096 65.7425 89.172C65.5898 89.0003 65.4871 88.7816 65.3814 88.5746C64.0267 85.9386 62.6647 83.3041 61.332 80.6563C61.1294 80.2542 60.9152 80.0898 60.4484 80.0942C57.5967 80.1177 54.7449 80.1147 51.8946 80.0971C51.466 80.0942 51.2429 80.2263 51.0463 80.6167C49.7062 83.2821 48.3354 85.9342 46.9734 88.5878C46.875 88.7786 46.7796 88.9753 46.6461 89.1397C46.3584 89.4934 45.9709 89.536 45.5893 89.3437C45.2004 89.147 45.0374 88.7933 45.1563 88.3604C45.2121 88.1563 45.3207 87.9655 45.4191 87.7747C46.6167 85.4293 47.8173 83.0869 49.0149 80.7429C49.1015 80.5727 49.1808 80.398 49.3188 80.1089C49.034 80.1089 48.8329 80.1089 48.6333 80.1089C46.0942 80.1089 43.5551 80.1103 41.0159 80.1089C39.2781 80.1074 38.5531 79.3838 38.5516 77.6607C38.5516 77.194 38.5516 76.7273 38.5516 76.1739C38.3153 76.1739 38.1098 76.1739 37.9044 76.1739C36.1857 76.1739 34.467 76.1783 32.7483 76.1725C31.0296 76.1666 30.0037 75.1539 30.0022 73.4469C29.9993 61.513 29.9993 49.5805 30.0022 37.6465C30.0022 35.9704 31.0281 34.9474 32.7057 34.9356C33.9562 34.9254 35.2052 34.9239 36.4557 34.9386C37.1632 34.9474 37.6123 35.4141 37.4758 35.9836C37.3525 36.4987 36.9841 36.6954 36.4719 36.6925C35.261 36.6866 34.0502 36.6881 32.8393 36.6925C31.9895 36.6954 31.7591 36.9229 31.7591 37.7654C31.7576 49.6201 31.7576 61.4763 31.7591 73.331C31.7591 74.2175 31.9777 74.4156 32.9435 74.4156C48.1196 74.4156 63.2943 74.4156 78.4705 74.4156C78.6847 74.4156 78.902 74.3995 79.1148 74.4274C79.5977 74.489 79.9059 74.7473 79.9323 75.2596C79.9573 75.7395 79.6358 76.1079 79.1207 76.1563C78.7523 76.1916 78.3795 76.171 78.0081 76.1725C76.6432 76.1739 75.2767 76.1725 73.8163 76.1725C73.8163 76.7331 73.8193 77.2703 73.8163 77.8075C73.8075 79.2972 73.0341 80.0957 71.5443 80.103C68.9465 80.1162 66.3486 80.1074 63.7522 80.1074C63.5409 80.1074 63.331 80.1074 63.0272 80.1074ZM72.0566 76.2106C61.423 76.2106 50.8863 76.2106 40.3598 76.2106C40.3378 76.284 40.3188 76.3207 40.3188 76.3559C40.3144 76.7463 40.3114 77.1368 40.3114 77.5272C40.3114 78.3462 40.3114 78.3476 41.1598 78.3476C51.1784 78.3476 61.197 78.3476 71.2141 78.3476C71.3506 78.3476 71.5164 78.3946 71.6177 78.3329C71.7865 78.2317 72.0228 78.0717 72.0375 77.919C72.0874 77.3643 72.0566 76.7992 72.0566 76.2106Z" fill="white"/>
<path d="M57.2978 54.0775C57.449 53.6577 57.1877 53.4361 56.7988 53.2306C56.0224 52.8226 55.2782 52.3529 54.4974 51.9522C54.3242 51.8642 54.0072 51.8789 53.8399 51.9816C52.6892 52.6949 51.5708 52.692 50.4289 51.9654C50.2763 51.8686 49.9798 51.8524 49.8213 51.9361C48.992 52.3705 48.1965 52.8666 47.3673 53.3011C47.0312 53.4772 46.971 53.6929 46.9842 54.0437C47.0414 55.6112 45.8893 56.941 44.3996 57.0687C42.7763 57.2081 41.4186 56.169 41.1926 54.5662C41.0238 53.373 41.4803 52.3999 42.471 51.7424C43.5087 51.0525 44.6197 51.0555 45.6633 51.735C45.9979 51.9522 46.2092 51.9728 46.5351 51.7746C47.3012 51.3094 48.085 50.8691 48.8731 50.442C49.1432 50.2952 49.2547 50.1411 49.2415 49.8094C49.1711 48.0408 50.4524 46.6655 52.1388 46.6611C53.8428 46.6553 55.0948 48.0349 55.0698 49.8563C55.0669 50.0369 55.2107 50.2967 55.3648 50.3906C56.197 50.8984 57.0468 51.3798 57.9098 51.8319C58.0625 51.9126 58.3516 51.8833 58.5057 51.7879C59.197 51.3563 59.9162 51.1626 60.7352 51.2859C60.9289 51.3153 61.2386 51.1993 61.3516 51.0437C62.8135 49.0418 64.2562 47.0266 65.6799 44.9968C65.79 44.8397 65.8061 44.5168 65.721 44.3407C65.0752 43.0153 65.3262 41.5814 66.4006 40.6714C67.4235 39.804 68.9103 39.7453 69.9818 40.5276C71.0826 41.3319 71.4979 42.7878 70.9798 44.0251C70.4426 45.3094 69.151 45.9787 67.6775 45.7702C67.5175 45.7482 67.2621 45.8539 67.1667 45.986C65.6873 48.0232 64.2342 50.0794 62.7504 52.1137C62.5243 52.4234 62.6917 52.5995 62.812 52.8358C63.3712 53.9322 63.1877 55.237 62.3541 56.1572C61.5659 57.0261 60.2391 57.3241 59.1295 56.8823C58.0141 56.4376 57.2875 55.35 57.2978 54.0775ZM52.1564 48.4253C51.5444 48.418 50.9925 48.961 50.9852 49.5775C50.9778 50.1983 51.5106 50.7384 52.1344 50.7443C52.7582 50.7502 53.3027 50.2203 53.3086 49.5995C53.3159 48.986 52.7743 48.4341 52.1564 48.4253ZM68.2646 41.734C67.6422 41.7428 67.1256 42.2815 67.1329 42.9141C67.1388 43.5481 67.6672 44.0706 68.2939 44.0604C68.9192 44.0515 69.4431 43.5114 69.4343 42.8862C69.424 42.2624 68.8795 41.7252 68.2646 41.734ZM61.378 54.1876C61.3898 53.5814 60.8438 53.0193 60.2303 53.0061C59.6153 52.9928 59.0693 53.5286 59.0605 54.1523C59.0503 54.7923 59.5552 55.3133 60.1951 55.3221C60.8218 55.3309 61.3663 54.8084 61.378 54.1876ZM45.2376 54.1802C45.2435 53.5638 44.7034 53.0119 44.0899 53.0046C43.4822 52.9987 42.923 53.5476 42.9157 54.1597C42.9084 54.7791 43.4411 55.3148 44.0693 55.3206C44.7048 55.325 45.2318 54.8113 45.2376 54.1802Z" fill="white"/>
<path d="M51.312 34.9326C51.312 34.3264 51.3002 33.7848 51.3149 33.2432C51.3487 31.9516 52.1823 31.0593 53.4783 31.0299C55.2748 30.9903 57.0727 30.9903 58.8677 31.0284C60.1755 31.0563 61.0282 31.978 61.0546 33.2902C61.0649 33.8142 61.0561 34.3381 61.0561 34.9326C61.3276 34.9326 61.5551 34.9326 61.7812 34.9326C67.6593 34.9326 73.539 34.9326 79.4172 34.9326C81.3927 34.9326 82.3629 35.9056 82.3643 37.8841C82.3658 40.3646 82.3673 42.845 82.3614 45.3254C82.3614 45.5764 82.3966 45.9008 82.2616 46.0607C82.0473 46.3132 81.72 46.5744 81.4103 46.6141C80.9891 46.6698 80.6985 46.3469 80.628 45.9052C80.5987 45.7144 80.6075 45.5162 80.6075 45.321C80.606 42.8406 80.6075 40.3602 80.606 37.8797C80.606 36.8919 80.3991 36.6909 79.3952 36.6909C66.5043 36.6909 53.6148 36.6909 40.7239 36.6894C40.4891 36.6894 40.2513 36.7041 40.0223 36.6674C39.582 36.5969 39.3178 36.3093 39.2855 35.8763C39.2518 35.4404 39.4778 35.119 39.9078 35.0001C40.1295 34.9384 40.3702 34.934 40.6021 34.934C43.9411 34.9296 47.2816 34.9311 50.6207 34.9311C50.8291 34.9326 51.039 34.9326 51.312 34.9326ZM59.2963 34.9003C59.2963 34.3337 59.2963 33.8274 59.2963 33.321C59.2963 32.9629 59.1143 32.775 58.7591 32.775C57.0434 32.7721 55.3276 32.7589 53.6133 32.7941C53.4299 32.7985 53.1202 33.0715 53.0967 33.2506C53.0277 33.7819 53.0718 34.3293 53.0718 34.9003C55.1618 34.9003 57.1975 34.9003 59.2963 34.9003Z" fill="white"/>
<path d="M49.4738 64.105C49.4738 62.1911 49.4708 60.2772 49.4752 58.3647C49.4767 57.3931 49.7688 57.0981 50.7287 57.0937C51.7047 57.0893 52.6807 57.0849 53.6582 57.0952C54.4772 57.104 54.8104 57.4181 54.8118 58.2282C54.8206 62.1529 54.8206 66.0776 54.8118 70.0022C54.8104 70.7904 54.4801 71.1133 53.7066 71.1221C52.6719 71.1338 51.6372 71.1338 50.6024 71.1221C49.7981 71.1133 49.4811 70.7889 49.4782 69.9626C49.4694 68.0105 49.4738 66.057 49.4738 64.105ZM53.0197 69.3461C53.0197 65.8369 53.0197 62.376 53.0197 58.8975C52.4121 58.8975 51.8426 58.8975 51.2776 58.8975C51.2776 62.4053 51.2776 65.8662 51.2776 69.3461C51.8647 69.3461 52.4077 69.3461 53.0197 69.3461Z" fill="white"/>
<path d="M57.5439 66.3461C57.5439 65.1558 57.5395 63.9655 57.5454 62.7751C57.5498 61.9092 57.8404 61.6083 58.6975 61.5995C59.7117 61.5892 60.7274 61.5892 61.7416 61.5995C62.5767 61.6083 62.8658 61.893 62.8688 62.7355C62.8776 65.1543 62.879 67.5746 62.8688 69.9933C62.8658 70.8123 62.5459 71.1147 61.7225 71.1205C60.7083 71.1294 59.6941 71.1294 58.6785 71.1205C57.8668 71.1132 57.5512 70.7918 57.5468 69.9728C57.538 68.7649 57.5439 67.5555 57.5439 66.3461ZM61.0752 69.3446C61.0752 67.3368 61.0752 65.3803 61.0752 63.4063C60.4705 63.4063 59.904 63.4063 59.3433 63.4063C59.3433 65.4126 59.3433 67.3691 59.3433 69.3446C59.9245 69.3446 60.4632 69.3446 61.0752 69.3446Z" fill="white"/>
<path d="M46.7488 66.3296C46.7488 67.539 46.7547 68.7484 46.7473 69.9593C46.7415 70.7827 46.4259 71.1129 45.626 71.1217C44.5913 71.1335 43.558 71.1335 42.5233 71.1217C41.7439 71.1129 41.4166 70.8003 41.4137 70.0107C41.4019 67.5713 41.4005 65.132 41.4137 62.6941C41.4181 61.903 41.7307 61.6095 42.5306 61.6007C43.5639 61.5889 44.5986 61.5875 45.6333 61.6007C46.4464 61.6109 46.7415 61.9236 46.7473 62.7587C46.7547 63.949 46.7488 65.1393 46.7488 66.3296ZM43.2087 63.381C43.2087 65.402 43.2087 67.36 43.2087 69.3164C43.8222 69.3164 44.3931 69.3164 44.942 69.3164C44.942 67.3101 44.942 65.3536 44.942 63.381C44.3506 63.381 43.8104 63.381 43.2087 63.381Z" fill="white"/>
<path d="M67.3753 69.3665C68.2324 69.3665 69.025 69.3621 69.819 69.368C70.5265 69.3738 70.9036 69.6718 70.9139 70.2192C70.9257 70.7726 70.5441 71.1131 69.8572 71.1204C68.8063 71.1322 67.7539 71.1336 66.7016 71.1204C65.9501 71.1116 65.6302 70.7902 65.6214 70.0519C65.6111 69.2931 65.6096 68.5328 65.6228 67.774C65.6346 67.1723 65.9707 66.8039 66.48 66.7965C66.9893 66.7877 67.3459 67.1503 67.3709 67.7462C67.3929 68.2657 67.3753 68.7868 67.3753 69.3665Z" fill="white"/>
<path d="M82.7132 58.4158C82.6369 58.0357 82.4974 57.2945 82.3345 56.5577C82.2802 56.3126 82.1569 56.0822 82.085 55.84C81.9235 55.294 82.1099 54.8566 82.5664 54.6732C83.0141 54.4941 83.4676 54.6893 83.7083 55.2074C84.2763 56.4329 84.5552 57.7304 84.448 59.0748C84.1236 63.1419 81.539 66.0421 77.5527 66.8654C73.0439 67.7974 68.2738 64.2617 67.8452 59.6707C67.4402 55.3322 69.8267 51.7759 74.0273 50.6047C76.5693 49.8958 78.9353 50.4359 81.0781 51.9535C81.5214 52.2676 81.6095 52.7871 81.3365 53.1878C81.062 53.5915 80.5762 53.6986 80.0962 53.383C79.1202 52.7431 78.0972 52.2676 76.9201 52.1281C73.4328 51.7143 70.1965 54.0641 69.6432 57.5279C69.2234 60.1595 70.085 62.3801 72.2484 63.952C74.425 65.5342 76.8188 65.7162 79.2024 64.4437C81.4201 63.2593 82.5561 61.3175 82.7132 58.4158Z" fill="white"/>
</svg>
